<?xml version="1.0" standalone="no"?>
<!DOCTYPE svg PUBLIC "-//W3C//DTD SVG 20010904//EN"
 "http://www.w3.org/TR/2001/REC-SVG-20010904/DTD/svg10.dtd">
<svg version="1.0" xmlns="http://www.w3.org/2000/svg"
 width="512.000000pt" height="512.000000pt" viewBox="0 0 512.000000 512.000000"
 preserveAspectRatio="xMidYMid meet">

<g transform="translate(0.000000,512.000000) scale(0.100000,-0.100000)"
fill="#000000" stroke="none">
<path d="M615 4256 c-22 -7 -51 -18 -64 -25 -45 -25 -113 -95 -139 -146 l-27
-50 -3 -1245 c-3 -1365 -6 -1282 58 -1374 34 -50 96 -98 162 -124 39 -15 115
-17 795 -20 l752 -3 -67 -89 c-75 -98 -149 -232 -197 -355 l-31 -80 -390 -5
c-388 -5 -389 -5 -439 -30 -75 -36 -157 -123 -183 -193 -12 -31 -25 -75 -28
-97 l-7 -40 1753 0 1753 0 -7 46 c-15 115 -107 238 -213 287 -46 21 -63 22
-437 27 l-390 5 -31 80 c-48 123 -122 257 -197 355 l-67 89 752 3 c680 3 756
5 795 20 66 26 128 74 162 124 64 92 61 9 58 1374 l-3 1245 -27 50 c-14 28
-47 70 -73 94 -69 63 -123 84 -232 89 l-93 4 0 -140 0 -140 45 -26 c50 -30 97
-92 114 -151 9 -30 11 -310 9 -1065 l-3 -1025 -22 -40 c-28 -53 -78 -99 -133
-124 -45 -20 -57 -21 -1760 -21 -1703 0 -1715 1 -1760 21 -55 25 -105 71 -133
124 l-22 40 -3 1025 c-2 755 0 1035 9 1065 17 59 64 121 114 151 l45 26 0 139
0 139 -77 -1 c-43 0 -96 -6 -118 -13z"/>
</g>
</svg>
